# xmcd CD database file
# Copyright (C) 1993-1997  Ti Kan
#
# Track frame offsets:
#	150
#	12467
#	26597
#	41297
#	55770
#	76892
#	86952
#	97612
#	114817
#	129882
#	139120
#	152437
#
# Disc length: 2219 seconds
#
# Revision: 1
# Processed by: cddbd v1.4b41PL1 Copyright (c) Steve Scherf et al.
# Submitted via: xmcd 2.2 PL0
#
DISCID=7e08a90c
DTITLE=New Coon Creek Girls - Everything You Do
DYEAR=1900
DGENRE=
TTITLE0=Everything You Do (Touches Someone Else)
TTITLE1=The Hammer
TTITLE2=Lord, Your're the Best Thing
TTITLE3=That Same Spirit
TTITLE4=Who Do You Think
TTITLE5=Palms of Victory
TTITLE6=Little Black Train is Coming
TTITLE7=The Lowest Valley
TTITLE8=Walk a Mile
TTITLE9=My Lord Will Send a Moses
TTITLE10=The Master's Hand
TTITLE11=How Great Thou Art
EXTD=
EXTT0=
EXTT1=
EXTT2=
EXTT3=
EXTT4=
EXTT5=
EXTT6=
EXTT7=
EXTT8=
EXTT9=
EXTT10=
EXTT11=
PLAYORDER=
